<svg width="75" height="56" viewBox="0 0 75 56" fill="none" xmlns="http://www.w3.org/2000/svg">
<rect x="0.5" y="0.5" width="74" height="55" rx="5.5" fill="#EEEEEE" stroke="#DDDDDD"/>
<path d="M22.0556 21C21.3694 21 20.7139 21.2213 20.25 21.6832C19.9806 21.9487 19.8167 22.2945 19.7028 22.6596H18.7222C18.1222 22.6596 17.6111 23.1685 17.6111 23.766V24.3191H16.5C15.1306 24.3191 14 25.4449 14 26.8085V42.8511C14 44.2147 15.1306 45.3404 16.5 45.3404H25.2833C26.2 46.3555 27.525 47 29 47C31.7528 47 34 44.7623 34 42.0213C34 40.5526 33.3528 39.2332 32.3333 38.3204V26.8085C32.3333 25.4449 31.2028 24.3191 29.8333 24.3191H28.7222V23.766C28.7222 23.1685 28.2111 22.6596 27.6111 22.6596H26.6306C26.5167 22.2945 26.35 21.9598 26.0833 21.6915C25.6222 21.2296 24.9639 21 24.2778 21H22.0556ZM22.0556 22.6596H24.2778C24.6139 22.6596 24.7889 22.7426 24.9028 22.8587C25.0167 22.9721 25.1111 23.1547 25.1111 23.4894C25.1111 23.9485 25.4833 24.3191 25.9444 24.3191H27.0556V25.9787H19.2778V24.3191H20.3889C20.85 24.3191 21.2222 23.9485 21.2222 23.4894C21.2222 23.4866 21.2222 23.4838 21.2222 23.4811C21.2222 23.1491 21.3167 22.9721 21.4306 22.8587C21.5444 22.7453 21.7194 22.6596 22.0556 22.6596ZM16.5 25.9787H17.6111V26.5319C17.6111 27.1294 18.1222 27.6383 18.7222 27.6383H27.6111C28.2111 27.6383 28.7222 27.1294 28.7222 26.5319V25.9787H29.8333C30.3083 25.9787 30.6667 26.3355 30.6667 26.8085V37.3357C30.1444 37.1504 29.5861 37.0426 29 37.0426C26.2472 37.0426 24 39.2802 24 42.0213C24 42.6049 24.1083 43.1609 24.2944 43.6809H16.5C16.025 43.6809 15.6667 43.324 15.6667 42.8511V26.8085C15.6667 26.3355 16.025 25.9787 16.5 25.9787ZM29 38.4255C31.0028 38.4255 32.6111 40.027 32.6111 42.0213C32.6111 44.0155 31.0028 45.617 29 45.617C26.9972 45.617 25.3889 44.0155 25.3889 42.0213C25.3889 40.027 26.9972 38.4255 29 38.4255ZM29 38.6938C28.5389 38.6938 28.1667 39.0645 28.1667 39.5236C28.1667 39.9828 28.5389 40.3534 29 40.3534C29.4611 40.3534 29.8333 39.9828 29.8333 39.5236C29.8333 39.0645 29.4611 38.6938 29 38.6938ZM29.0083 40.7766C28.6278 40.7766 28.3194 41.0809 28.3139 41.4598V44.5106C28.3139 44.8923 28.625 45.2021 29.0083 45.2021C29.3639 45.2021 29.7028 44.9311 29.7028 44.5106V41.4598C29.6972 41.0809 29.3889 40.7766 29.0083 40.7766Z" fill="black"/>
<circle cx="43" cy="27" r="18" fill="#F6AE24"/>
<path d="M51 25.232H39.302L44.64 19.4995L42.3124 17L33 27.0006L35.3275 29.5002L42.3124 37L44.64 34.5005L39.302 28.768H51V25.232Z" fill="white"/>
</svg>
