<svg width="140" height="211" viewBox="0 0 140 211" fill="none" xmlns="http://www.w3.org/2000/svg">
<rect width="140" height="211" fill="#F6AE24" fill-opacity="0.95"/>
<circle cx="70" cy="94" r="29" fill="white"/>
<path d="M56.2422 144.848V133.712H57.4062V144.848H56.2422ZM52.0542 137.78H53.8302V133.88H54.9702V144.62H53.8302V138.872H52.0542V137.78ZM50.9022 135.68V136.28C50.9022 137.096 50.8182 137.876 50.6622 138.632L53.1822 142.544L52.2342 143.204L50.2422 140.108C49.8462 141.224 49.2462 142.28 48.4782 143.324L47.5662 142.616C49.0302 140.672 49.7982 138.764 49.7982 136.28V135.68H47.9622V134.588H52.8102V135.68H50.9022ZM66.6611 137.096H68.3171V138.104H60.3011V137.096H61.9691V134.948H60.3011V133.952H68.3171V134.948H66.6611V137.096ZM65.4971 134.948H63.1331V137.096H65.4971V134.948ZM69.5411 139.052V140.096H64.9091V141.212H68.2691V144.848H60.3611V141.212H63.7091V140.096H59.0771V139.052H69.5411ZM61.5611 143.852H67.0691V142.196H61.5611V143.852ZM79.996 142.052H78.808V137.228H76.396V136.16H78.808V133.712H79.996V142.052ZM76.72 140.252L73.804 137.912C73.252 138.836 72.412 139.652 71.248 140.42L70.576 139.496C72.532 138.188 73.42 136.772 73.42 134.984V134.132H74.596V134.984C74.596 135.656 74.5 136.28 74.296 136.868L77.404 139.352L76.72 140.252ZM73.828 141.356V143.756H80.464V144.848H72.64V141.356H73.828ZM90.4149 136.28V133.712H91.5549V140.192H90.4149V137.348H89.0229V140.192H87.9189V133.832H89.0229V136.28H90.4149ZM87.0429 138.584L87.1749 139.592C86.2269 139.772 85.2789 139.868 83.8269 139.868H82.1469V134.24H86.5509V135.284H83.3109V136.496H86.4429V137.528H83.3109V138.824H84.0429C85.1709 138.824 86.0589 138.74 87.0429 138.584ZM90.3549 141.992H84.0069V140.888H91.5549V144.968H90.3549V141.992Z" fill="white"/>
<path d="M59.75 90.3333L70.9999 101.333L67.25 105L56 94L59.75 90.3333Z" fill="#F6AE24"/>
<path d="M86 86.6667L67.25 105L63.5001 101.333L82.25 83L86 86.6667Z" fill="#F6AE24"/>
</svg>
