<svg width="80" height="35" viewBox="0 0 80 35" fill="none" xmlns="http://www.w3.org/2000/svg">
<g clip-path="url(#clip0_15_2)">
<path d="M40.5929 11.5559L37.9418 14.2361C37.9418 14.2361 37.9418 14.2374 37.9418 14.2387V28.5033C37.9418 29.51 38.7143 30.3714 39.71 30.4064C40.7533 30.444 41.613 29.5982 41.613 28.5513V13.2125C41.613 12.4874 41.1998 11.8595 40.5993 11.5533C40.598 11.5533 40.5954 11.5533 40.5942 11.5533L40.5929 11.5559Z" fill="#F5AB35"/>
<path d="M63.4633 15.8382C63.4633 15.8382 63.4556 15.8382 63.4518 15.8382C63.4505 15.8382 63.4492 15.8382 63.4479 15.8382C63.4454 15.8382 63.4428 15.8382 63.4402 15.8382C62.3829 15.8382 61.5244 16.7048 61.5244 17.775C61.5244 18.8452 62.3816 19.7118 63.4402 19.7118C64.4989 19.7118 65.3561 18.8452 65.3561 17.775C65.3561 16.7048 64.5117 15.8525 63.4646 15.8395L63.4633 15.8382Z" fill="#1E1E1E"/>
<path d="M14.4052 15.7241C13.4377 15.7241 12.5407 15.9148 11.7413 16.2936C11.1857 16.5556 10.6839 16.8942 10.2515 17.3002C9.86655 16.8877 9.41743 16.5491 8.91184 16.2897C8.17785 15.9148 7.34249 15.7241 6.4327 15.7241C5.68331 15.7241 4.97498 15.8577 4.32568 16.1223C3.98819 16.2598 3.66996 16.4285 3.37739 16.6257C3.31451 16.5361 3.24265 16.4531 3.16438 16.3766C2.8192 16.0406 2.37906 15.8694 1.85936 15.8694C1.33966 15.8694 0.895675 16.0445 0.541512 16.3896C0.182215 16.7411 0 17.1977 0 17.7491V28.5202C0 29.0521 0.179648 29.5022 0.533812 29.8603C0.887976 30.2183 1.33453 30.4012 1.85936 30.4012C2.38419 30.4012 2.85641 30.217 3.20416 29.8538C3.54549 29.497 3.71872 29.0482 3.71872 28.5215V21.6953C3.71872 20.9546 3.92532 20.3695 4.34877 19.9077C4.76068 19.4602 5.28551 19.2422 5.95278 19.2422C6.62004 19.2422 7.08071 19.4277 7.44514 19.8078C7.81086 20.1892 7.99564 20.7924 7.99564 21.598V28.5202C7.99564 29.0521 8.17529 29.5022 8.52945 29.8603C8.88361 30.2183 9.33017 30.4012 9.855 30.4012C10.3798 30.4012 10.8533 30.217 11.1998 29.8538C11.5411 29.497 11.7144 29.0482 11.7144 28.5215V21.6953C11.7144 20.9546 11.921 20.3695 12.3457 19.9077C12.7576 19.4602 13.2747 19.2422 13.9253 19.2422C14.5759 19.2422 15.0533 19.4277 15.4177 19.8078C15.7834 20.1892 15.9682 20.7911 15.9682 21.598V28.5202C15.9682 29.0521 16.1478 29.5035 16.502 29.8603C16.8562 30.2183 17.3014 30.4012 17.8275 30.4012C18.3536 30.4012 18.8259 30.217 19.1723 29.8538C19.5137 29.497 19.6869 29.0482 19.6869 28.5215V21.5993C19.6869 19.791 19.198 18.3484 18.233 17.3093C17.2578 16.2585 15.9695 15.7254 14.404 15.7254L14.4052 15.7241Z" fill="#1E1E1E"/>
<path d="M32.406 16.5919C31.4141 15.9835 30.231 15.6747 28.8901 15.6747C27.5491 15.6747 26.307 15.9926 25.2304 16.6204C24.1499 17.2509 23.2953 18.1408 22.6896 19.2681C22.0904 20.3838 21.7863 21.6564 21.7863 23.0497C21.7863 24.4429 22.1096 25.7233 22.7461 26.835C23.3851 27.9507 24.2859 28.8354 25.4229 29.462C26.5495 30.0847 27.8366 30.3999 29.2494 30.3999C30.0501 30.3999 30.897 30.2507 31.7632 29.955C32.6357 29.6579 33.3774 29.2661 33.9651 28.7939C34.3835 28.4774 34.6042 28.048 34.6042 27.5511C34.6042 27.2035 34.4925 26.6949 33.9639 26.25C33.6674 25.9789 33.2812 25.8401 32.8167 25.8401C32.3521 25.8401 31.9723 25.975 31.6387 26.2383C31.3615 26.4524 30.992 26.6392 30.5403 26.7935C30.0911 26.9479 29.6561 27.0257 29.2481 27.0257C28.1766 27.0257 27.3027 26.7339 26.5752 26.1319C26.0478 25.6948 25.6821 25.1733 25.4639 24.5415H33.7483C34.2359 24.5415 34.6516 24.3793 34.9814 24.0589C35.3138 23.7359 35.4883 23.3117 35.4883 22.8304C35.4883 21.4618 35.224 20.2255 34.7043 19.1566C34.173 18.0656 33.3992 17.2016 32.4035 16.5906L32.406 16.5919ZM28.8913 19.0489C29.7793 19.0489 30.471 19.3058 31.0074 19.8338C31.4116 20.232 31.6939 20.7185 31.8671 21.3165H25.5037C25.7116 20.7302 26.0311 20.2515 26.4764 19.8571C27.0884 19.3136 27.8776 19.0489 28.8926 19.0489H28.8913Z" fill="#1E1E1E"/>
<path d="M55.4138 16.6451C54.3064 16.0017 53.0668 15.6761 51.7323 15.6761C50.3978 15.6761 49.1633 16.003 48.07 16.6477C46.9793 17.2925 46.1042 18.185 45.4677 19.3045C44.8312 20.424 44.5092 21.685 44.5092 23.051V33.1203C44.5092 33.6716 44.6914 34.1296 45.0507 34.4798C45.4035 34.8249 45.8475 35 46.3685 35C46.8895 35 47.3591 34.8223 47.7056 34.472C48.0521 34.1218 48.2279 33.6665 48.2279 33.1203V29.0677C48.5743 29.3323 48.9503 29.5632 49.3481 29.7565C50.2297 30.1833 51.1921 30.4013 52.2109 30.4013C53.4749 30.4013 54.6388 30.0756 55.6705 29.4335C56.6983 28.794 57.517 27.9001 58.1034 26.7767C58.6847 25.6624 58.9786 24.4092 58.9786 23.051C58.9786 21.6928 58.6603 20.4253 58.0328 19.3071C57.4041 18.1863 56.5225 17.2912 55.4138 16.6464V16.6451ZM49.8948 19.6457C50.4453 19.3097 51.0458 19.1462 51.731 19.1462C52.4163 19.1462 53.0245 19.3149 53.5673 19.6457C54.1126 19.9804 54.5515 20.4474 54.8697 21.0364C55.1905 21.6318 55.3535 22.3103 55.3535 23.051C55.3535 23.7917 55.1905 24.4637 54.871 25.0501C54.5515 25.6325 54.1126 26.0983 53.566 26.4316C53.0245 26.7637 52.406 26.9311 51.7297 26.9311C51.0535 26.9311 50.4427 26.7676 49.8935 26.4316C49.3481 26.0983 48.9144 25.6351 48.6039 25.054C48.2895 24.4676 48.1304 23.793 48.1304 23.0497C48.1304 22.3064 48.2908 21.6253 48.6051 21.0299C48.9157 20.4435 49.3494 19.9765 49.8935 19.6431L49.8948 19.6457Z" fill="#1E1E1E"/>
<path d="M63.4402 20.7107C62.918 20.7107 62.4753 20.8858 62.1224 21.2309C61.7631 21.5825 61.5796 22.0391 61.5796 22.5904V28.5202C61.5796 29.0521 61.7592 29.5022 62.1134 29.8602C62.4676 30.2183 62.9128 30.3999 63.4389 30.3999C63.9651 30.3999 64.436 30.2157 64.7837 29.8525C65.1251 29.4957 65.2983 29.0482 65.2983 28.5202V22.5904C65.2983 22.043 65.1225 21.5889 64.776 21.2387C64.4296 20.8884 63.9805 20.7107 63.4389 20.7107H63.4402Z" fill="#1E1E1E"/>
<path d="M79.5894 27.4318L75.3381 22.1585L79.2609 18.9361C79.6663 18.604 79.8806 18.1461 79.8806 17.6116C79.8806 17.1614 79.7151 16.7515 79.4097 16.4324C79.0825 16.0367 78.6359 15.8279 78.1175 15.8279C77.6684 15.8279 77.2514 16.0004 76.9549 16.3027L72.2443 20.2502V17.5792C72.2443 16.5556 71.4205 15.7228 70.408 15.7228C69.3956 15.7228 68.5718 16.5556 68.5718 17.5792V28.5527C68.5718 29.5762 69.3956 30.409 70.408 30.409C71.4205 30.409 72.2443 29.5762 72.2443 28.5527V24.945L72.6767 24.5597L76.7997 29.715C77.1449 30.1625 77.6171 30.3999 78.1663 30.3999C78.5846 30.3999 78.9798 30.2521 79.3417 29.9602C79.7741 29.5956 80.0026 29.1144 80.0026 28.5682C80.0026 28.1207 79.8601 27.7276 79.5932 27.4305L79.5894 27.4318Z" fill="#1E1E1E"/>
<path d="M38.4643 28.3048C38.3758 28.3048 38.3052 28.3775 38.3052 28.4657C38.3052 29.7707 39.4998 29.9536 39.5127 29.9562C39.5986 29.9666 39.6795 29.9082 39.6923 29.82C39.7051 29.7318 39.6448 29.6501 39.5576 29.6371C39.5191 29.6319 38.6247 29.4866 38.6247 28.467C38.6247 28.3775 38.5528 28.3061 38.4656 28.3061L38.4643 28.3048Z" fill="white"/>
<path d="M38.4641 27.9611C38.5562 27.9611 38.6309 27.8856 38.6309 27.7924C38.6309 27.6993 38.5562 27.6238 38.4641 27.6238C38.3719 27.6238 38.2972 27.6993 38.2972 27.7924C38.2972 27.8856 38.3719 27.9611 38.4641 27.9611Z" fill="white"/>
<path d="M30.6326 11.6053C31.2563 12.0126 31.9582 12.2604 32.6819 12.3408C32.7153 12.3447 32.7473 12.333 32.7704 12.3084L33.5699 11.5015L36.3313 8.7111L36.742 8.29598L38.8708 6.14513L39.6702 5.33823C39.6933 5.31488 39.7049 5.28115 39.7023 5.24872C39.6227 4.51577 39.3777 3.80487 38.9747 3.17311C38.9375 3.11603 38.8567 3.10954 38.8092 3.15754L30.5864 11.4652C30.5646 11.4859 30.5467 11.5093 30.5287 11.5313C30.5633 11.556 30.5993 11.5819 30.6352 11.6053H30.6326Z" fill="#F5AB35"/>
<path d="M35.1482 13.8197C35.1662 13.8249 35.1829 13.8301 35.2008 13.834C35.2021 13.834 35.2034 13.834 35.2047 13.834C35.6397 13.93 36.094 13.795 36.4083 13.4759L40.8264 9.00946C41.3371 8.49575 41.3384 7.66032 40.8303 7.14401C40.6519 6.96239 40.4286 6.84175 40.1887 6.78726C40.1579 6.78078 40.1245 6.78726 40.1001 6.80802C40.086 6.81969 40.0719 6.83267 40.0591 6.84564L38.174 8.75131L37.7724 9.15735L37.186 9.7502L36.7843 10.1562L34.336 12.6314C34.2898 12.6781 34.2538 12.73 34.2256 12.7845C34.2141 12.8078 34.2115 12.8351 34.2179 12.8597C34.3283 13.3138 34.6747 13.6913 35.1482 13.8184V13.8197Z" fill="#F5AB35"/>
<path d="M28.4846 6.71202L28.6129 6.5823L34.0036 1.13122L34.1987 0.93404C34.3398 0.791342 34.3937 0.605834 34.3758 0.429407C34.3706 0.382706 34.3373 0.343788 34.2923 0.332113C33.2414 0.0700666 32.4356 0.00650101 32.3573 1.47192e-05C32.27 -0.00647157 32.184 0.0155818 32.1122 0.0609858C32.084 0.0778502 32.0583 0.0986063 32.0352 0.121957L27.6171 4.58841C27.5927 4.61306 27.5709 4.6416 27.5542 4.67144C27.5119 4.74408 27.4914 4.82841 27.4965 4.91403C27.5016 4.99186 27.5619 5.76503 27.8032 6.78597C27.8122 6.82618 27.843 6.85602 27.8827 6.8677C28.0855 6.92607 28.3165 6.88197 28.4859 6.71073L28.4846 6.71202Z" fill="#F5AB35"/>
<path d="M29.6408 10.513L30.1425 10.0057L37.3964 2.67754L37.8789 2.19107L37.8687 1.97573C37.3502 1.55931 36.7677 1.2298 36.18 0.969055L36.0221 0.998892L35.4485 1.57877L29.0582 8.03521L28.5013 8.59822C28.4872 8.61249 28.473 8.62806 28.4615 8.64363C28.4358 8.67476 28.4307 8.71887 28.4474 8.75649C28.7117 9.3675 29.0466 9.97332 29.4727 10.5104C29.5112 10.5597 29.5856 10.5662 29.6305 10.5221C29.6343 10.5182 29.6382 10.5143 29.642 10.5117L29.6408 10.513Z" fill="#F5AB35"/>
</g>
<defs>
<clipPath id="clip0_15_2">
<rect width="80" height="35" fill="white"/>
</clipPath>
</defs>
</svg>
