<svg width="39" height="35" viewBox="0 0 39 35" fill="none" xmlns="http://www.w3.org/2000/svg">
<path d="M8.05556 8.5C7.36944 8.5 6.71389 8.72128 6.25 9.18319C5.98056 9.44872 5.81667 9.79447 5.70278 10.1596H4.72222C4.12222 10.1596 3.61111 10.6685 3.61111 11.266V11.8191H2.5C1.13056 11.8191 0 12.9449 0 14.3085V30.3511C0 31.7147 1.13056 32.8404 2.5 32.8404H11.2833C12.2 33.8555 13.525 34.5 15 34.5C17.7528 34.5 20 32.2623 20 29.5213C20 28.0526 19.3528 26.7332 18.3333 25.8204V14.3085C18.3333 12.9449 17.2028 11.8191 15.8333 11.8191H14.7222V11.266C14.7222 10.6685 14.2111 10.1596 13.6111 10.1596H12.6306C12.5167 9.79447 12.35 9.45979 12.0833 9.19149C11.6222 8.72957 10.9639 8.5 10.2778 8.5H8.05556ZM8.05556 10.1596H10.2778C10.6139 10.1596 10.7889 10.2426 10.9028 10.3587C11.0167 10.4721 11.1111 10.6547 11.1111 10.9894C11.1111 11.4485 11.4833 11.8191 11.9444 11.8191H13.0556V13.4787H5.27778V11.8191H6.38889C6.85 11.8191 7.22222 11.4485 7.22222 10.9894C7.22222 10.9866 7.22222 10.9838 7.22222 10.9811C7.22222 10.6491 7.31667 10.4721 7.43056 10.3587C7.54444 10.2453 7.71944 10.1596 8.05556 10.1596ZM2.5 13.4787H3.61111V14.0319C3.61111 14.6294 4.12222 15.1383 4.72222 15.1383H13.6111C14.2111 15.1383 14.7222 14.6294 14.7222 14.0319V13.4787H15.8333C16.3083 13.4787 16.6667 13.8355 16.6667 14.3085V24.8357C16.1444 24.6504 15.5861 24.5426 15 24.5426C12.2472 24.5426 10 26.7802 10 29.5213C10 30.1049 10.1083 30.6609 10.2944 31.1809H2.5C2.025 31.1809 1.66667 30.824 1.66667 30.3511V14.3085C1.66667 13.8355 2.025 13.4787 2.5 13.4787ZM15 25.9255C17.0028 25.9255 18.6111 27.527 18.6111 29.5213C18.6111 31.5155 17.0028 33.117 15 33.117C12.9972 33.117 11.3889 31.5155 11.3889 29.5213C11.3889 27.527 12.9972 25.9255 15 25.9255ZM15 26.1938C14.5389 26.1938 14.1667 26.5645 14.1667 27.0236C14.1667 27.4828 14.5389 27.8534 15 27.8534C15.4611 27.8534 15.8333 27.4828 15.8333 27.0236C15.8333 26.5645 15.4611 26.1938 15 26.1938ZM15.0083 28.2766C14.6278 28.2766 14.3194 28.5809 14.3139 28.9598V32.0106C14.3139 32.3923 14.625 32.7021 15.0083 32.7021C15.3639 32.7021 15.7028 32.4311 15.7028 32.0106V28.9598C15.6972 28.5809 15.3889 28.2766 15.0083 28.2766Z" fill="black"/>
<circle cx="26" cy="13.5" r="13" fill="#F6AE24"/>
<path d="M21 12.5H31V14.5H21V12.5Z" fill="white"/>
</svg>
